<svg xmlns="http://www.w3.org/2000/svg" version="1.1" xmlns:xlink="http://www.w3.org/1999/xlink" xmlns:svgjs="http://svgjs.com/svgjs" width="1440" height="900" preserveAspectRatio="none" viewBox="0 0 1440 900"><g mask="url(&quot;#SvgjsMask1048&quot;)" fill="none"><rect width="1440" height="900" x="0" y="0" fill="url(#SvgjsLinearGradient1049)"></rect><path d="M0 0L245.11 0L0 395.13z" fill="rgba(255, 255, 255, .1)"></path><path d="M0 395.13L245.11 0L438.93 0L0 664.14z" fill="rgba(255, 255, 255, .075)"></path><path d="M0 664.14L438.93 0L901.11 0L0 670.63z" fill="rgba(255, 255, 255, .05)"></path><path d="M0 670.63L901.11 0L1051.82 0L0 693.38z" fill="rgba(255, 255, 255, .025)"></path><path d="M1440 900L773.91 900L1440 608.03z" fill="rgba(0, 0, 0, .1)"></path><path d="M1440 608.03L773.91 900L603.12 900L1440 436.34z" fill="rgba(0, 0, 0, .075)"></path><path d="M1440 436.34L603.12 900L514.06 900L1440 397.10999999999996z" fill="rgba(0, 0, 0, .05)"></path><path d="M1440 397.10999999999996L514.06 900L309.79999999999995 900L1440 238.38999999999996z" fill="rgba(0, 0, 0, .025)"></path></g><defs><mask id="SvgjsMask1048"><rect width="1440" height="900" fill="#ffffff"></rect></mask><linearGradient x1="0%" y1="50%" x2="100%" y2="50%" gradientUnits="userSpaceOnUse" id="SvgjsLinearGradient1049"><stop stop-color="rgba(14, 42, 71, 1)" offset="0"></stop><stop stop-color="rgba(0, 158, 138, 1)" offset="1"></stop></linearGradient></defs></svg>